<!DOCTYPE svg PUBLIC "-//W3C//DTD SVG 1.1//EN" "http://www.w3.org/Graphics/SVG/1.1/DTD/svg11.dtd">
<!-- Uploaded to: SVG Repo, www.svgrepo.com, Transformed by: SVG Repo Mixer Tools -->
<svg fill="#808080" width="800px" height="800px" viewBox="0 0 16 16" xmlns="http://www.w3.org/2000/svg" transform="rotate(0)matrix(-1, 0, 0, -1, 0, 0)">
<g id="SVGRepo_bgCarrier" stroke-width="0"/>
<g id="SVGRepo_tracerCarrier" stroke-linecap="round" stroke-linejoin="round"/>
<g id="SVGRepo_iconCarrier"> <path d="M10.157 9.95L8.036 7.828 5.914 9.95 4.5 8.536 8.036 5l3.535 3.536-1.414 1.414zM0 8c0-4.418 3.59-8 8-8 4.418 0 8 3.59 8 8 0 4.418-3.59 8-8 8-4.418 0-8-3.59-8-8zm2 0c0 3.307 2.686 6 6 6 3.307 0 6-2.686 6-6 0-3.307-2.686-6-6-6-3.307 0-6 2.686-6 6z" fill-rule="evenodd"/> </g>
</svg>