<!DOCTYPE svg PUBLIC "-//W3C//DTD SVG 1.1//EN" "http://www.w3.org/Graphics/SVG/1.1/DTD/svg11.dtd">
<!-- Uploaded to: SVG Repo, www.svgrepo.com, Transformed by: SVG Repo Mixer Tools -->
<svg version="1.1" id="Uploaded to svgrepo.com" xmlns="http://www.w3.org/2000/svg" xmlns:xlink="http://www.w3.org/1999/xlink" width="800px" height="800px" viewBox="0 0 32 32" xml:space="preserve" fill="#7b8ead">
<g id="SVGRepo_bgCarrier" stroke-width="0"/>
<g id="SVGRepo_tracerCarrier" stroke-linecap="round" stroke-linejoin="round"/>
<g id="SVGRepo_iconCarrier"> <style type="text/css"> .puchipuchi_een{fill:#7b8ead;} </style> <path class="puchipuchi_een" d="M29,9v10c0,1.1-0.9,2-2,2H17c-1.1,0-2-0.9-2-2V9c0-1.1,0.9-2,2-2h10C28.1,7,29,7.9,29,9z M28,27H4 c-0.552,0-1,0.447-1,1s0.448,1,1,1h24c0.552,0,1-0.447,1-1S28.552,27,28,27z M4,25h24c0.552,0,1-0.447,1-1s-0.448-1-1-1H4 c-0.552,0-1,0.447-1,1S3.448,25,4,25z M4,21h8c0.552,0,1-0.447,1-1s-0.448-1-1-1H4c-0.552,0-1,0.447-1,1S3.448,21,4,21z M4,17h8 c0.552,0,1-0.447,1-1s-0.448-1-1-1H4c-0.552,0-1,0.447-1,1S3.448,17,4,17z M4,13h8c0.552,0,1-0.447,1-1s-0.448-1-1-1H4 c-0.552,0-1,0.447-1,1S3.448,13,4,13z M4,9h8c0.552,0,1-0.447,1-1s-0.448-1-1-1H4C3.448,7,3,7.447,3,8S3.448,9,4,9z M4,5h24 c0.552,0,1-0.447,1-1s-0.448-1-1-1H4C3.448,3,3,3.447,3,4S3.448,5,4,5z"/> </g>
</svg>