<svg fill="none" viewBox="0 0 12 6" xmlns="http://www.w3.org/2000/svg"><path clip-rule="evenodd" d="m10 1c0-.55228.4477-1 1-1s1 .44772 1 1c0 .5523-.4477 1-1 1s-1-.4477-1-1zm-5 0c0-.55228.4477-1 1-1s1 .44772 1 1c0 .5523-.4477 1-1 1s-1-.4477-1-1zm-5 0c0-.55228.44772-1 1-1s1 .44772 1 1c0 .5523-.44772 1-1 1s-1-.4477-1-1zm10 4c0-.5523.4477-1 1-1s1 .4477 1 1-.4477 1-1 1-1-.4477-1-1zm-5 0c0-.5523.4477-1 1-1s1 .4477 1 1-.4477 1-1 1-1-.4477-1-1zm-5 0c0-.5523.44772-1 1-1s1 .4477 1 1-.44772 1-1 1-1-.4477-1-1z" fill="#758ca3" fill-rule="evenodd"/></svg>