<!DOCTYPE svg PUBLIC "-//W3C//DTD SVG 1.1//EN" "http://www.w3.org/Graphics/SVG/1.1/DTD/svg11.dtd">

<!-- Uploaded to: SVG Repo, www.svgrepo.com, Transformed by: SVG Repo Mixer Tools -->
<svg height="60px" width="60px" version="1.1" id="Layer_1" xmlns="http://www.w3.org/2000/svg" xmlns:xlink="http://www.w3.org/1999/xlink" viewBox="0 0 512 512" xml:space="preserve" fill="#000000">

<g id="SVGRepo_bgCarrier" stroke-width="0"/>

<g id="SVGRepo_tracerCarrier" stroke-linecap="round" stroke-linejoin="round"/>

<g id="SVGRepo_iconCarrier"> <path style="fill:#1C274C;" d="M408.387,512H159.603c-8.313,0-15.054-6.741-15.054-15.054v-71.829 c0-8.313,6.741-15.054,15.054-15.054h132.043c8.313,0,15.054,6.741,15.054,15.054c0,8.313-6.741,15.054-15.054,15.054H174.657 v41.722h218.676v-41.722h-28.605c-8.313,0-15.054-6.741-15.054-15.054c0-8.313,6.741-15.054,15.054-15.054h43.659 c8.313,0,15.054,6.741,15.054,15.054v71.829C423.441,505.26,416.7,512,408.387,512z"/> <path style="fill:#3953a7;" d="M302.481,198.013v-15.951c0-15.948-13.009-29.53-29.728-30.096 c-17.553-0.595-31.979,12.793-31.979,29.391v17.213l-0.333-154.106c0-16.243-13.813-29.411-30.854-29.411H208.4 c-17.039,0-30.854,13.168-30.854,29.411v110.671v25.447v76.908l-30.02-73.097c-5.281-15.769-22.984-24.465-39.527-19.431 c-16.543,5.043-25.665,21.909-20.384,37.684l65.918,135.745c8.141,16.765,25.756,27.5,45.137,27.509l177.423,0.077 c27.491,0.012,49.783-21.226,49.786-47.432l0.018-116.556c0-16.243-13.813-29.411-30.854-29.411l0,0 c-17.039,0-30.854,13.168-30.854,29.411v-6.989c0-16.243-13.813-29.411-30.854-29.411l0,0c-17.039,0-30.854,13.168-30.854,29.411"/> <path style="fill:#1C274C;" d="M376.115,381.032c-0.011,0-0.02,0-0.03,0l-177.421-0.077c-25.033-0.012-48.062-14.139-58.672-35.988 L74.073,209.223c-0.283-0.583-0.528-1.182-0.733-1.796c-3.788-11.308-2.854-23.391,2.625-34.022 c5.684-11.03,15.502-19.142,27.643-22.843c24.074-7.325,49.967,5.457,58.011,28.529l0.872,2.121V44.463 C162.492,19.946,183.087,0,208.4,0h1.186c25.313,0,45.907,19.946,45.907,44.464l0.206,95.206c5.564-1.993,11.525-2.958,17.56-2.75 c15.338,0.521,28.625,8.286,36.537,19.916c6.886-3.998,14.939-6.3,23.537-6.3c13.886,0,26.35,6,34.776,15.465 c7.569-5.329,16.88-8.475,26.933-8.475c25.313,0,45.908,19.946,45.908,44.464l-0.02,116.557 c-0.001,16.832-6.84,32.616-19.255,44.442C409.465,374.625,393.285,381.032,376.115,381.032z M101.658,197.106l65.415,134.711 c5.612,11.555,18.016,19.027,31.602,19.033l177.42,0.077c0.006,0,0.012,0,0.018,0c9.403,0,18.208-3.455,24.794-9.731 c6.393-6.091,9.914-14.134,9.916-22.648l0.02-116.556c0-7.914-7.089-14.354-15.801-14.354c-8.712,0-15.799,6.44-15.799,14.357 c0,8.313-6.741,15.054-15.054,15.054c-8.313,0-15.054-6.741-15.054-15.054v-6.991c0-7.917-7.089-14.357-15.8-14.357 c-8.712,0-15.801,6.44-15.801,14.357v3.011c0,8.313-6.741,15.054-15.054,15.054c-8.313,0-15.054-6.741-15.054-15.054v-15.953 c0.002-8.015-6.81-14.768-15.185-15.051c-4.622-0.178-8.943,1.45-12.123,4.522c-2.768,2.675-4.293,6.165-4.293,9.824v17.213 c0,8.308-6.731,15.045-15.037,15.054c-0.005,0-0.012,0-0.017,0c-8.302,0-15.036-6.719-15.054-15.022l-0.333-154.104 c0-7.948-7.087-14.39-15.799-14.39H208.4c-8.712,0-15.8,6.44-15.8,14.357v213.028c0,7.19-5.085,13.377-12.138,14.769 c-7.057,1.394-14.11-2.398-16.841-9.05l-30.02-73.098c-0.128-0.309-0.244-0.622-0.349-0.939 c-2.708-8.087-12.073-12.487-20.869-9.809c-4.295,1.308-7.726,4.092-9.654,7.834C101.127,190.304,100.756,193.792,101.658,197.106z"/> </g>

</svg>