<?xml version="1.0" ?>
<!DOCTYPE svg  PUBLIC '-//W3C//DTD SVG 1.1//EN'  'http://www.w3.org/Graphics/SVG/1.1/DTD/svg11.dtd'>
<!-- Uploaded to: SVG Repo, www.svgrepo.com, Generator: SVG Repo Mixer Tools -->
<svg width="800px" height="800px" viewBox="0 0 512 512" enable-background="new 0 0 512 512" id="Layer_1" version="1.1" xml:space="preserve" xmlns="http://www.w3.org/2000/svg" xmlns:xlink="http://www.w3.org/1999/xlink">
<g>
<g>
<path d="M450.255,434.511H61.745c-13.257,0-24.042-10.786-24.042-24.042V101.532    c0-13.257,10.785-24.042,24.042-24.042h388.511c13.257,0,24.042,10.786,24.042,24.042v308.937    C474.298,423.725,463.513,434.511,450.255,434.511z M61.745,97.489c-2.229,0-4.042,1.813-4.042,4.042v308.937    c0,2.229,1.813,4.042,4.042,4.042h388.511c2.229,0,4.042-1.813,4.042-4.042V101.532c0-2.229-1.813-4.042-4.042-4.042H61.745z" fill="#444B54"/>
</g>
<g>
<path d="M450.117,163.589H63.655c-13.298,0-24.118-10.785-24.118-24.042v-38.015    c0-13.257,10.819-24.042,24.118-24.042h386.462c13.298,0,24.118,10.786,24.118,24.042v38.015    C474.235,152.804,463.416,163.589,450.117,163.589z M63.655,97.489c-2.271,0-4.118,1.813-4.118,4.042v38.015    c0,2.229,1.847,4.042,4.118,4.042h386.462c2.271,0,4.118-1.813,4.118-4.042v-38.015c0-2.229-1.847-4.042-4.118-4.042H63.655z" fill="#444B54"/>
</g>
<g>
<path d="M93.73,128.69c-2.63,0-5.21-1.06-7.07-2.92c-1.86-1.87-2.93-4.44-2.93-7.07c0-2.64,1.07-5.21,2.93-7.08    c1.86-1.86,4.44-2.92,7.07-2.92c2.63,0,5.21,1.06,7.07,2.92c1.86,1.87,2.93,4.44,2.93,7.08c0,2.63-1.07,5.21-2.93,7.07    C98.94,127.63,96.36,128.69,93.73,128.69z" fill="#444B54"/>
</g>
<g>
<path d="M142.49,128.69c-2.64,0-5.21-1.06-7.07-2.92c-1.86-1.86-2.93-4.44-2.93-7.07c0-2.64,1.07-5.22,2.93-7.08    c1.86-1.86,4.43-2.92,7.07-2.92c2.63,0,5.21,1.06,7.07,2.92c1.86,1.86,2.93,4.44,2.93,7.08c0,2.63-1.07,5.21-2.93,7.07    C147.7,127.63,145.12,128.69,142.49,128.69z" fill="#444B54"/>
</g>
<g>
<path d="M130.769,224.768c-2.508,0-5.002-0.94-6.921-2.78l-10.631-10.188c-3.987-3.821-4.123-10.151-0.301-14.139    c3.821-3.987,10.15-4.123,14.139-0.301l4.694,4.498l23.393-16.432c4.52-3.173,10.757-2.083,13.931,2.435    c3.174,4.52,2.084,10.757-2.435,13.931l-30.123,21.158C134.78,224.169,132.77,224.768,130.769,224.768z" fill="#444B54"/>
</g>
<g>
<path d="M136.164,305.05c-2.508,0-5.002-0.94-6.921-2.78l-10.631-10.188c-3.987-3.821-4.123-10.151-0.301-14.139    c3.821-3.987,10.15-4.123,14.139-0.301l4.694,4.498l23.393-16.432c4.521-3.173,10.757-2.083,13.931,2.435    c3.174,4.52,2.084,10.757-2.435,13.931l-30.123,21.158C140.175,304.451,138.165,305.05,136.164,305.05z" fill="#444B54"/>
</g>
<g>
<path d="M151.512,374.753h-31.377c-5.523,0-10-4.477-10-10s4.477-10,10-10h31.377c5.523,0,10,4.477,10,10    S157.035,374.753,151.512,374.753z" fill="#444B54"/>
</g>
<g>
<path d="M379.69,214.189H203.667c-5.523,0-10-4.477-10-10s4.477-10,10-10H379.69c5.523,0,10,4.477,10,10    S385.213,214.189,379.69,214.189z" fill="#444B54"/>
</g>
<g>
<path d="M379.69,294.989H203.667c-5.523,0-10-4.477-10-10s4.477-10,10-10H379.69c5.523,0,10,4.477,10,10    S385.213,294.989,379.69,294.989z" fill="#444B54"/>
</g>
<g>
<path d="M379.69,374.753H203.667c-5.523,0-10-4.477-10-10s4.477-10,10-10H379.69c5.523,0,10,4.477,10,10    S385.213,374.753,379.69,374.753z" fill="#444B54"/>
</g>
<g>
<path d="M464.298,410.468c0,7.755-6.287,14.042-14.042,14.042H61.745c-7.755,0-14.042-6.287-14.042-14.042V101.532    c0-7.755,6.287-14.042,14.042-14.042h388.511c7.755,0,14.042,6.287,14.042,14.042V410.468z" fill="#D9DCE1"/>
<path d="M450.255,434.511H61.745c-13.257,0-24.042-10.786-24.042-24.042V101.532    c0-13.257,10.785-24.042,24.042-24.042h388.511c13.257,0,24.042,10.786,24.042,24.042v308.937    C474.298,423.725,463.513,434.511,450.255,434.511z M61.745,97.489c-2.229,0-4.042,1.813-4.042,4.042v308.937    c0,2.229,1.813,4.042,4.042,4.042h388.511c2.229,0,4.042-1.813,4.042-4.042V101.532c0-2.229-1.813-4.042-4.042-4.042H61.745z" fill="#444B54"/>
</g>
<g>
<path d="M464.235,139.547c0,7.755-6.321,14.042-14.118,14.042H63.655c-7.797,0-14.118-6.287-14.118-14.042v-38.015    c0-7.755,6.321-14.042,14.118-14.042h386.462c7.797,0,14.118,6.287,14.118,14.042V139.547z" fill="#65A0D6"/>
<path d="M450.117,163.589H63.655c-13.298,0-24.118-10.785-24.118-24.042v-38.015    c0-13.257,10.819-24.042,24.118-24.042h386.462c13.298,0,24.118,10.786,24.118,24.042v38.015    C474.235,152.804,463.416,163.589,450.117,163.589z M63.655,97.489c-2.271,0-4.118,1.813-4.118,4.042v38.015    c0,2.229,1.847,4.042,4.118,4.042h386.462c2.271,0,4.118-1.813,4.118-4.042v-38.015c0-2.229-1.847-4.042-4.118-4.042H63.655z" fill="#444B54"/>
</g>
<g>
<path d="M93.73,128.69c-2.63,0-5.21-1.06-7.07-2.92c-1.86-1.87-2.93-4.44-2.93-7.07c0-2.64,1.07-5.21,2.93-7.08    c1.86-1.86,4.44-2.92,7.07-2.92c2.63,0,5.21,1.06,7.07,2.92c1.86,1.87,2.93,4.44,2.93,7.08c0,2.63-1.07,5.21-2.93,7.07    C98.94,127.63,96.36,128.69,93.73,128.69z" fill="#444B54"/>
</g>
<g>
<path d="M142.49,128.69c-2.64,0-5.21-1.06-7.07-2.92c-1.86-1.86-2.93-4.44-2.93-7.07c0-2.64,1.07-5.22,2.93-7.08    c1.86-1.86,4.43-2.92,7.07-2.92c2.63,0,5.21,1.06,7.07,2.92c1.86,1.86,2.93,4.44,2.93,7.08c0,2.63-1.07,5.21-2.93,7.07    C147.7,127.63,145.12,128.69,142.49,128.69z" fill="#444B54"/>
</g>
<g>
<path d="M130.769,224.768c-2.508,0-5.002-0.94-6.921-2.78l-10.631-10.188c-3.987-3.821-4.123-10.151-0.301-14.139    c3.821-3.987,10.15-4.123,14.139-0.301l4.694,4.498l23.393-16.432c4.52-3.173,10.757-2.083,13.931,2.435    c3.174,4.52,2.084,10.757-2.435,13.931l-30.123,21.158C134.78,224.169,132.77,224.768,130.769,224.768z" fill="#444B54"/>
</g>
<g>
<path d="M136.164,305.05c-2.508,0-5.002-0.94-6.921-2.78l-10.631-10.188c-3.987-3.821-4.123-10.151-0.301-14.139    c3.821-3.987,10.15-4.123,14.139-0.301l4.694,4.498l23.393-16.432c4.521-3.173,10.757-2.083,13.931,2.435    c3.174,4.52,2.084,10.757-2.435,13.931l-30.123,21.158C140.175,304.451,138.165,305.05,136.164,305.05z" fill="#444B54"/>
</g>
<g>
<path d="M151.512,374.753h-31.377c-5.523,0-10-4.477-10-10s4.477-10,10-10h31.377c5.523,0,10,4.477,10,10    S157.035,374.753,151.512,374.753z" fill="#444B54"/>
</g>
<g>
<path d="M379.69,214.189H203.667c-5.523,0-10-4.477-10-10s4.477-10,10-10H379.69c5.523,0,10,4.477,10,10    S385.213,214.189,379.69,214.189z" fill="#444B54"/>
</g>
<g>
<path d="M379.69,294.989H203.667c-5.523,0-10-4.477-10-10s4.477-10,10-10H379.69c5.523,0,10,4.477,10,10    S385.213,294.989,379.69,294.989z" fill="#444B54"/>
</g>
<g>
<path d="M379.69,374.753H203.667c-5.523,0-10-4.477-10-10s4.477-10,10-10H379.69c5.523,0,10,4.477,10,10    S385.213,374.753,379.69,374.753z" fill="#444B54"/>
</g>
</g>
</svg>