<!DOCTYPE svg PUBLIC "-//W3C//DTD SVG 1.1//EN" "http://www.w3.org/Graphics/SVG/1.1/DTD/svg11.dtd">
<!-- Uploaded to: SVG Repo, www.svgrepo.com, Transformed by: SVG Repo Mixer Tools -->
<svg fill="#7b8ead" height="800px" width="800px" version="1.1" id="Layer_1" xmlns="http://www.w3.org/2000/svg" xmlns:xlink="http://www.w3.org/1999/xlink" viewBox="0 0 256.00 256.00" xml:space="preserve" stroke="#7b8ead" stroke-width="0.00256">
<g id="SVGRepo_bgCarrier" stroke-width="0"/>
<g id="SVGRepo_tracerCarrier" stroke-linecap="round" stroke-linejoin="round"/>
<g id="SVGRepo_iconCarrier"> <g> <path d="M173,44.5v14.2H84.8V44.5h-33v194.3H206V44.5H173z M90.5,188.7c-6.1,0-11-4.9-11-11c0-6.1,4.9-11,11-11c6.1,0,11,4.9,11,11 C101.5,183.7,96.6,188.7,90.5,188.7z M90.5,151.8c-6.1,0-11-4.9-11-11c0-6.1,4.9-11,11-11c6.1,0,11,4.9,11,11 C101.5,146.9,96.6,151.8,90.5,151.8z M90.5,115c-6.1,0-11-4.9-11-11s4.9-11,11-11c6.1,0,11,4.9,11,11S96.6,115,90.5,115z M178.3,186.1h-65.5v-16.8h65.5V186.1z M178.3,149.2h-65.5v-16.8h65.5V149.2z M178.3,112.4h-65.5V95.6h65.5V112.4z"/> <g> <path d="M140.9,32.4c-0.2-6.5-5.5-11.7-12-11.7c-6.5,0-11.8,5.2-12,11.7H93.1v19.9h71.5V32.4H140.9z M128.9,38.2 c-3,0-5.5-2.5-5.5-5.5c0-0.1,0-0.2,0-0.3c0.2-2.9,2.6-5.2,5.5-5.2c2.9,0,5.3,2.3,5.5,5.2c0,0.1,0,0.2,0,0.3 C134.4,35.7,131.9,38.2,128.9,38.2z"/> </g> </g> </g>
</svg>